<?xml version="1.0" standalone="no"?>
<!DOCTYPE svg PUBLIC "-//W3C//DTD SVG 20010904//EN"
 "http://www.w3.org/TR/2001/REC-SVG-20010904/DTD/svg10.dtd">
<svg version="1.0" xmlns="http://www.w3.org/2000/svg"
 width="1000.000000pt" height="1000.000000pt" viewBox="0 0 1000.000000 1000.000000"
 preserveAspectRatio="xMidYMid meet">

<g transform="translate(0.000000,1000.000000) scale(0.100000,-0.100000)"
fill="#000000" stroke="none">
<path d="M3430 7345 c-79 -16 -129 -34 -201 -70 -77 -39 -1056 -600 -1800
-1031 -349 -202 -699 -405 -779 -450 -221 -126 -247 -142 -312 -196 -153 -128
-252 -338 -265 -563 -8 -147 14 -262 94 -480 90 -245 313 -506 541 -631 37
-21 258 -149 492 -284 584 -340 1313 -760 1818 -1049 515 -294 541 -305 742
-305 157 -1 221 13 346 75 195 96 335 268 384 472 25 103 27 303 4 438 -57
343 -260 686 -499 844 -44 29 -208 127 -365 217 -636 366 -729 423 -717 434 7
6 163 98 347 204 493 285 825 485 910 548 118 88 247 223 281 295 71 153 87
329 48 520 -47 230 -176 555 -266 675 -75 99 -212 211 -328 270 -144 72 -330
99 -475 67z"/>
<path d="M6130 7348 c-368 -52 -659 -364 -687 -735 -7 -91 8 -226 38 -345 66
-266 275 -564 514 -733 33 -23 272 -165 530 -315 592 -344 575 -334 575 -340
0 -6 -456 -273 -930 -545 -362 -208 -388 -224 -481 -313 -121 -113 -215 -281
-238 -423 -25 -148 1 -388 58 -552 93 -266 397 -604 636 -707 194 -84 419 -79
602 13 109 55 1136 643 2228 1277 253 147 486 280 517 295 144 72 260 189 328
330 59 124 75 198 74 355 -1 383 -192 810 -448 1004 -67 50 -623 378 -1596
938 -1385 798 -1344 777 -1512 798 -94 11 -117 11 -208 -2z m1589 -2574 c179
-103 434 -250 566 -327 333 -195 433 -235 621 -246 l102 -6 -267 -155 c-1539
-892 -2201 -1269 -2279 -1296 -190 -66 -360 -53 -543 42 -250 129 -397 343
-416 604 -16 227 65 431 233 591 76 71 137 111 369 243 105 60 381 220 615
356 591 344 654 380 664 380 5 0 155 -84 335 -186z"/>
</g>
</svg>
