<?xml version="1.0" standalone="no"?>
<!DOCTYPE svg PUBLIC "-//W3C//DTD SVG 20010904//EN"
 "http://www.w3.org/TR/2001/REC-SVG-20010904/DTD/svg10.dtd">
<svg version="1.0" xmlns="http://www.w3.org/2000/svg"
 width="50.000000pt" height="50.000000pt" viewBox="0 0 256.000000 130.000000"
 preserveAspectRatio="xMidYMid meet">

<g transform="translate(0.000000,130.000000) scale(0.100000,-0.100000)"
fill="#000000" stroke="none">
<path d="M868 1236 c-45 -16 -685 -384 -751 -432 -103 -75 -117 -215 -31 -296
43 -40 769 -455 809 -462 19 -4 52 -2 73 4 95 25 147 94 147 192 -1 98 -24
120 -277 267 -120 69 -218 129 -218 132 0 3 89 57 198 119 239 137 259 151
283 204 52 114 -7 243 -126 275 -50 14 -61 13 -107 -3z"/>
<path d="M1545 1226 c-42 -18 -92 -78 -105 -126 -18 -66 3 -142 52 -187 12
-12 192 -120 398 -240 l375 -218 67 0 c58 0 72 4 109 30 115 82 110 248 -10
324 -55 35 -672 391 -718 415 -38 19 -126 21 -168 2z"/>
</g>
</svg>
